<svg xmlns="http://www.w3.org/2000/svg" width="58" height="39"><defs><filter id="a" width="129.6%" height="145.7%" x="-14.8%" y="-22.9%" filterUnits="objectBoundingBox"><feOffset dy="2" in="SourceAlpha" result="shadowOffsetOuter1"/><feGaussianBlur in="shadowOffsetOuter1" result="shadowBlurOuter1" stdDeviation="1"/><feColorMatrix in="shadowBlurOuter1" result="shadowMatrixOuter1" values="0 0 0 0 0 0 0 0 0 0 0 0 0 0 0 0 0 0 0.117385643 0"/><feMerge><feMergeNode in="shadowMatrixOuter1"/><feMergeNode in="SourceGraphic"/></feMerge></filter></defs><g fill="none"><path fill="#FFF" d="M52.2 35H1.8C.808 35 0 34.165 0 33.134V1.866C0 .836.807 0 1.8 0h50.4c.993 0 1.8.835 1.8 1.866v31.268c0 1.03-.807 1.866-1.8 1.866z" filter="url(#a)" transform="translate(2)"/><path fill="#F37421" d="M44.024 7.661c.89 3.61 1.753 7.227 2.629 10.84.906 3.75 1.854 7.49 2.696 11.253.352 1.57.12 3.128-1.023 4.383a1.82 1.82 0 01-1.2.533c-10.808.027-21.616.019-32.424.03-.495 0-.745-.113-.873-.637-1.092-4.541-2.216-9.076-3.331-13.613L9 14.367V13.25c.05-.15.11-.297.147-.45.549-2.39 2.065-3.894 4.433-4.468 7.617-1.845 15.236-3.686 22.878-5.434 3.72-.85 6.657 1.076 7.566 4.762zm-15.75 12.855c.048-.904-.439-.918-.967-.872-.116.01-.235.02-.352.004-.576-.076-.792.15-.767.738.055 1.277.058 2.555.07 3.833.003.236-.045.471-.074.742-.801-.193-1.013-.738-1.07-1.329-.07-.809-.102-1.62-.096-2.433 0-1.914.19-1.506-1.599-1.58-.582-.025-.75.23-.734.735.033 1.02.032 2.044.098 3.064.139 2.096.787 2.853 2.84 3.29.502.106.652.335.633.803-.025.62-.006 1.242-.006 1.906.373.021.626.046.88.047 1.657.013 1.355.022 1.386-1.326.004-.232.013-.464-.002-.696-.034-.488.193-.642.67-.646.611.003 1.22-.05 1.822-.155 1.53-.291 2.376-1.356 2.524-3.1.154-1.8-.604-3.324-1.935-3.846a3.99 3.99 0 00-.887-.2c-.919-.133-1.628.31-2.433 1.021zm6.988-.273c-1.233 1.027-1.538 2.404-1.2 3.915.301 1.352 1.159 2.3 2.542 2.472 1.042.13 2.134-.034 3.194-.155.8-.091.346-.701.332-1.098-.014-.431-.24-.545-.705-.492-.734.085-1.494.121-2.22.014-.381-.055-.71-.458-1.061-.704l.156-.317h.749c1.008-.003 2.018.008 3.026-.02.187-.007.483-.138.536-.28.47-1.273-.44-3.335-1.71-3.85-1.297-.525-2.56-.384-3.639.515zm-20.888-3.326c-.671-.022-.823.235-.818.843.028 2.439-.005 4.877.017 7.316.018 1.785-.337 1.528 1.696 1.558.46.008.625-.183.618-.62-.014-.93.01-1.858-.003-2.787-.006-.415.163-.588.583-.58.776.014 1.55.017 2.325 0 .43-.01.59.179.581.585-.012.603-.003 1.208-.003 1.811v.32c.008 1.39.116 1.373 1.74 1.274.425-.026.585-.186.578-.594-.013-.695 0-1.393 0-2.088 0-2.114.01-4.227-.019-6.34-.004-.226-.226-.619-.385-.64-.596-.076-1.206-.03-1.912-.03l-.002 2.434v.406c-.003.984-.08.817-1.254.818-.698 0-1.686.206-2.017-.153-.377-.41-.189-1.346-.208-2.056-.049-1.65.25-1.417-1.517-1.477zm30.64 2.603c-.569.206-1.088.536-1.62.807.062-.783-.57-.742-1.202-.701-.07.006-.142.005-.212-.003-.532-.077-.697.165-.684.673.041 1.604.034 3.207.074 4.809.042 1.662-.36 1.485 1.61 1.54.542.015.69-.202.682-.694a50.276 50.276 0 01.03-3.066c.038-.805.452-1.278 1.22-1.248.841.033.941-.37.87-1.014a2.373 2.373 0 01-.001-.486c.058-.595-.281-.793-.768-.617zm-14.057 2.457c.365.722.395 1.472.08 2.218-.308.727-1.576 1.192-2.291.829-.125-.063-.214-.285-.235-.444-.036-.297-.01-.6-.01-.901l-.04-.004c.056-.481.08-.97.177-1.443.123-.595.56-.902 1.144-.968.559-.064.938.243 1.175.713zm6.456-1.01c.644-.002 1.067.494 1.061 1.297H36.26c-.002-.756.49-1.296 1.154-1.297zm-13.553-4.32c-.624.014-1.08.516-1.05 1.154.03.61.491 1.032 1.11 1.017.284-.001.557-.115.757-.316.2-.201.31-.473.308-.755 0-.295-.12-.576-.331-.783a1.116 1.116 0 00-.794-.317z"/></g></svg>